<?xml version="1.0" encoding="utf-8"?>
<!-- Generator: Adobe Illustrator 26.1.0, SVG Export Plug-In . SVG Version: 6.00 Build 0)  -->
<svg version="1.1" id="Layer_1" xmlns="http://www.w3.org/2000/svg" xmlns:xlink="http://www.w3.org/1999/xlink" x="0px" y="0px"
	 viewBox="0 0 535.1 527.7" style="enable-background:new 0 0 535.1 527.7;" xml:space="preserve">
<style type="text/css">
	.st0{fill:#010101;}
	.st1{fill:#DB2524;}
	.st2{fill:#EAEAE2;}
	.st3{fill:#030303;}
</style>
<path class="st0" d="M299,423.7c-6.2,10.8-12.3,20.9-18,31.3c-1.7,3.1-4,3.4-6.9,3.4c-19.7,0-39.4-0.1-59.1,0.1
	c-5,0.1-7-1.8-6.1-6.5c3.3-16.9-4.5-26.9-17.5-37.9c-66-55.6-101.7-126.9-105.9-213.5c-0.3-6.6-0.4-10.6,8.8-10.4
	c107.6,2.3,215.2,4.2,322.8,6.2c3.8,0.1,7.8-0.7,11.3,3.2c-9.1,0.4-18.2,1-27.3,1.2c-88.8,2.7-177.6,5.5-266.3,8
	c-7.4,0.2-9.1,2.7-8.5,9.3c6.5,65.7,32.1,122.2,80.7,167.3c19.1,17.7,42,29.2,67.7,34.5C282.3,421.5,290.1,422.3,299,423.7z"/>
<path class="st1" d="M296,527.7c-12.9-0.3-19.5-13-12.9-24.8c11.5-20.7,23.5-41.3,35.4-61.8C380.3,334,442.2,226.9,503.9,119.7
	c4.6-7.9,10.4-12.6,19.7-10.4c7.2,1.7,11,6.9,11.5,14.2c0.3,4.5-1.7,8.5-3.9,12.3C494.1,199.9,457,264,420,328.1
	c-36.3,62.7-72.5,125.5-108.6,188.3C307.7,522.8,303.3,527.5,296,527.7z"/>
<path class="st2" d="M289.3,407.4c-20.9-3.2-40.4-10.4-57.3-22.8c-20.5-15.1-36.7-34.6-49.4-56.7c-12.4-21.6-22.9-43.8-28.9-68.3
	c-2.3-9.5-4.8-19.2-7.8-28.7c-2.6-8.2-0.3-10.8,8.2-11c6.1-0.1,12,2.6,18.4,0.6c3.1-1,4.1,2.9,4.4,5.9c2.1,19.8,6.2,39.2,11.5,58.3
	c5.1,18.4,14.3,35.1,23.5,51.7c11.6,20.8,27.1,38.5,45.7,53.5C267.3,397.6,279.4,400.5,289.3,407.4z"/>
<path class="st3" d="M189.6,178.7c-11,3.1-17.4-0.4-23.5-8.3c-39.6-51.2-79.8-102-119.7-152.9C41,10.7,44.5,1.6,53.2,0.1
	c3.9-0.7,4.9,3.3,6.6,5.5c32.9,43.7,65.7,87.5,98.5,131.3C168.5,150.6,178.8,164.4,189.6,178.7z"/>
<path class="st3" d="M163,179c-10.9,2.9-17.9-1.5-25.2-7.9C93.7,132.4,49.2,94.2,5,55.6c-2-1.7-6.9-3.1-4.2-6.9
	c3.2-4.5,7.7-8.1,11.8-11.9c0.2-0.2,2.4,1.6,3.5,2.7c48.2,45.4,96.3,90.8,144.5,136.2C161.3,176.5,161.9,177.5,163,179z"/>
</svg>
